<svg width="500" height="500" viewBox="0 0 500 500" fill="none" xmlns="http://www.w3.org/2000/svg">
<rect width="500" height="500" rx="60" fill="#222F5A"/>
<mask id="mask0_10023_57006" style="mask-type:luminance" maskUnits="userSpaceOnUse" x="87" y="197" width="328" height="106">
<path d="M256.867 230.965C256.68 245.67 269.973 253.877 279.986 258.756C290.274 263.763 293.73 266.973 293.69 271.45C293.612 278.302 285.483 281.325 277.875 281.443C264.603 281.649 256.887 277.86 250.751 274.993L245.97 297.366C252.125 300.203 263.523 302.677 275.342 302.785C303.085 302.785 321.237 289.091 321.335 267.857C321.443 240.909 284.06 239.417 284.315 227.372C284.404 223.72 287.889 219.822 295.526 218.831C299.306 218.33 309.741 217.947 321.57 223.396L326.214 201.749C319.852 199.433 311.675 197.214 301.495 197.214C275.382 197.214 257.014 211.095 256.867 230.965ZM370.832 199.079C365.766 199.079 361.496 202.034 359.591 206.569L319.96 301.195H347.683L353.201 285.949H387.079L390.279 301.195H414.713L393.391 199.079H370.832ZM374.709 226.665L382.71 265.01H360.799L374.709 226.665ZM223.254 199.079L201.401 301.195H227.819L249.661 199.079H223.254ZM184.173 199.079L156.675 268.583L145.553 209.485C144.247 202.888 139.093 199.079 133.37 199.079H88.4184L87.79 202.044C97.018 204.046 107.502 207.276 113.854 210.732C117.741 212.842 118.851 214.688 120.127 219.704L141.194 301.195H169.113L211.915 199.079H184.173Z" fill="white"/>
</mask>
<g mask="url(#mask0_10023_57006)">
<path d="M53.5557 209.823L375.672 91.195L448.952 290.181L126.839 408.809" fill="white"/>
</g>
</svg>
